<?xml version="1.0" standalone="no"?><!DOCTYPE svg PUBLIC "-//W3C//DTD SVG 1.1//EN" "http://www.w3.org/Graphics/SVG/1.1/DTD/svg11.dtd"><svg t="1691193265320" class="icon" viewBox="0 0 1024 1024" version="1.1" xmlns="http://www.w3.org/2000/svg" p-id="2290" xmlns:xlink="http://www.w3.org/1999/xlink" width="200" height="200"><path d="M465.066667 102.4c0-42.666667-38.4-76.8-81.066667-76.8H136.533333c-46.933333 0-81.066667 38.4-81.066666 81.066667v166.4h836.266666V157.866667c0-29.866667-25.6-55.466667-55.466666-55.466667h-371.2z" fill="#DDB67B" p-id="2291"></path><path d="M853.333333 836.266667l-17.066666-17.066667c8.533333-4.266667 12.8-12.8 21.333333-17.066667 8.533333-8.533333 12.8-12.8 17.066667-21.333333l17.066666 17.066667 8.533334-8.533334c4.266667-4.266667 8.533333-4.266667 12.8 0l89.6 89.6c17.066667 17.066667 17.066667 46.933333 0 64s-46.933333 17.066667-64 0L844.8 853.333333c-4.266667-4.266667-4.266667-8.533333 0-12.8l8.533333-4.266666zM686.933333 861.866667c-128 0-230.4-102.4-230.4-230.4s102.4-230.4 230.4-230.4 230.4 102.4 230.4 230.4-102.4 230.4-230.4 230.4z m0-409.6c-102.4 0-183.466667 81.066667-183.466666 183.466666s81.066667 183.466667 183.466666 183.466667 183.466667-81.066667 183.466667-183.466667-81.066667-183.466667-183.466667-183.466666z" p-id="2292"></path><path d="M682.666667 371.2c106.666667 0 174.933333 51.2 217.6 123.733333 4.266667 4.266667 12.8 8.533333 17.066666 12.8l4.266667 4.266667 17.066667-166.4c0-4.266667 0-12.8-4.266667-17.066667s-8.533333-4.266667-17.066667-4.266666H29.866667c-4.266667 0-12.8 4.266667-17.066667 4.266666v17.066667l59.733333 486.4c0 17.066667 17.066667 29.866667 34.133334 29.866667h465.066666C358.4 763.733333 392.533333 371.2 682.666667 371.2z" fill="#DDB67B" p-id="2293"></path></svg>